<mxfile host="Electron" modified="2024-05-19T06:25:40.578Z" agent="Mozilla/5.0 (Windows NT 10.0; Win64; x64) AppleWebKit/537.36 (KHTML, like Gecko) draw.io/24.4.0 Chrome/120.0.6099.109 Electron/28.1.0 Safari/537.36" etag="B7WeEbQcQT-3_PI9fa7I" version="24.4.0" type="device">
  <diagram name="Page-1" id="gM_6Dn-CnzqExn7b6yO8">
    <mxGraphModel dx="726" dy="504" grid="1" gridSize="10" guides="1" tooltips="1" connect="1" arrows="1" fold="1" page="1" pageScale="1" pageWidth="850" pageHeight="1100" math="0" shadow="0">
      <root>
        <mxCell id="0" />
        <mxCell id="1" parent="0" />
        <mxCell id="VFUWJiDe5TxiRyz3XMpH-14" value="FileAnalyzer" style="swimlane;fontStyle=0;childLayout=stackLayout;horizontal=1;startSize=26;fillColor=none;horizontalStack=0;resizeParent=1;resizeParentMax=0;resizeLast=0;collapsible=1;marginBottom=0;whiteSpace=wrap;html=1;" vertex="1" parent="1">
          <mxGeometry x="290" y="120" width="230" height="110" as="geometry" />
        </mxCell>
        <mxCell id="VFUWJiDe5TxiRyz3XMpH-15" value="- results: AnalysisResults" style="text;strokeColor=none;fillColor=none;align=left;verticalAlign=top;spacingLeft=4;spacingRight=4;overflow=hidden;rotatable=0;points=[[0,0.5],[1,0.5]];portConstraint=eastwest;whiteSpace=wrap;html=1;" vertex="1" parent="VFUWJiDe5TxiRyz3XMpH-14">
          <mxGeometry y="26" width="230" height="26" as="geometry" />
        </mxCell>
        <mxCell id="VFUWJiDe5TxiRyz3XMpH-19" value="" style="line;strokeWidth=1;fillColor=none;align=left;verticalAlign=middle;spacingTop=-1;spacingLeft=3;spacingRight=3;rotatable=0;labelPosition=right;points=[];portConstraint=eastwest;strokeColor=inherit;" vertex="1" parent="VFUWJiDe5TxiRyz3XMpH-14">
          <mxGeometry y="52" width="230" height="8" as="geometry" />
        </mxCell>
        <mxCell id="VFUWJiDe5TxiRyz3XMpH-16" value="+ GetAnalysisResults(): AnalysisResults" style="text;strokeColor=none;fillColor=none;align=left;verticalAlign=top;spacingLeft=4;spacingRight=4;overflow=hidden;rotatable=0;points=[[0,0.5],[1,0.5]];portConstraint=eastwest;whiteSpace=wrap;html=1;" vertex="1" parent="VFUWJiDe5TxiRyz3XMpH-14">
          <mxGeometry y="60" width="230" height="26" as="geometry" />
        </mxCell>
        <mxCell id="VFUWJiDe5TxiRyz3XMpH-17" value="+ SetAnalysisResults(AnalysisResults)&amp;nbsp;" style="text;strokeColor=none;fillColor=none;align=left;verticalAlign=top;spacingLeft=4;spacingRight=4;overflow=hidden;rotatable=0;points=[[0,0.5],[1,0.5]];portConstraint=eastwest;whiteSpace=wrap;html=1;" vertex="1" parent="VFUWJiDe5TxiRyz3XMpH-14">
          <mxGeometry y="86" width="230" height="24" as="geometry" />
        </mxCell>
        <mxCell id="VFUWJiDe5TxiRyz3XMpH-20" value="CsvFileAnalyzer" style="swimlane;fontStyle=1;align=center;verticalAlign=top;childLayout=stackLayout;horizontal=1;startSize=26;horizontalStack=0;resizeParent=1;resizeParentMax=0;resizeLast=0;collapsible=1;marginBottom=0;whiteSpace=wrap;html=1;" vertex="1" parent="1">
          <mxGeometry x="280" y="350" width="160" height="86" as="geometry" />
        </mxCell>
        <mxCell id="VFUWJiDe5TxiRyz3XMpH-21" value="+ field: type" style="text;strokeColor=none;fillColor=none;align=left;verticalAlign=top;spacingLeft=4;spacingRight=4;overflow=hidden;rotatable=0;points=[[0,0.5],[1,0.5]];portConstraint=eastwest;whiteSpace=wrap;html=1;" vertex="1" parent="VFUWJiDe5TxiRyz3XMpH-20">
          <mxGeometry y="26" width="160" height="26" as="geometry" />
        </mxCell>
        <mxCell id="VFUWJiDe5TxiRyz3XMpH-22" value="" style="line;strokeWidth=1;fillColor=none;align=left;verticalAlign=middle;spacingTop=-1;spacingLeft=3;spacingRight=3;rotatable=0;labelPosition=right;points=[];portConstraint=eastwest;strokeColor=inherit;" vertex="1" parent="VFUWJiDe5TxiRyz3XMpH-20">
          <mxGeometry y="52" width="160" height="8" as="geometry" />
        </mxCell>
        <mxCell id="VFUWJiDe5TxiRyz3XMpH-23" value="+ method(type): type" style="text;strokeColor=none;fillColor=none;align=left;verticalAlign=top;spacingLeft=4;spacingRight=4;overflow=hidden;rotatable=0;points=[[0,0.5],[1,0.5]];portConstraint=eastwest;whiteSpace=wrap;html=1;" vertex="1" parent="VFUWJiDe5TxiRyz3XMpH-20">
          <mxGeometry y="60" width="160" height="26" as="geometry" />
        </mxCell>
        <mxCell id="VFUWJiDe5TxiRyz3XMpH-24" value="TxtFileAnalyzer" style="swimlane;fontStyle=1;align=center;verticalAlign=top;childLayout=stackLayout;horizontal=1;startSize=26;horizontalStack=0;resizeParent=1;resizeParentMax=0;resizeLast=0;collapsible=1;marginBottom=0;whiteSpace=wrap;html=1;" vertex="1" parent="1">
          <mxGeometry x="500" y="350" width="160" height="86" as="geometry" />
        </mxCell>
        <mxCell id="VFUWJiDe5TxiRyz3XMpH-25" value="+ field: type" style="text;strokeColor=none;fillColor=none;align=left;verticalAlign=top;spacingLeft=4;spacingRight=4;overflow=hidden;rotatable=0;points=[[0,0.5],[1,0.5]];portConstraint=eastwest;whiteSpace=wrap;html=1;" vertex="1" parent="VFUWJiDe5TxiRyz3XMpH-24">
          <mxGeometry y="26" width="160" height="26" as="geometry" />
        </mxCell>
        <mxCell id="VFUWJiDe5TxiRyz3XMpH-26" value="" style="line;strokeWidth=1;fillColor=none;align=left;verticalAlign=middle;spacingTop=-1;spacingLeft=3;spacingRight=3;rotatable=0;labelPosition=right;points=[];portConstraint=eastwest;strokeColor=inherit;" vertex="1" parent="VFUWJiDe5TxiRyz3XMpH-24">
          <mxGeometry y="52" width="160" height="8" as="geometry" />
        </mxCell>
        <mxCell id="VFUWJiDe5TxiRyz3XMpH-27" value="+ method(type): type" style="text;strokeColor=none;fillColor=none;align=left;verticalAlign=top;spacingLeft=4;spacingRight=4;overflow=hidden;rotatable=0;points=[[0,0.5],[1,0.5]];portConstraint=eastwest;whiteSpace=wrap;html=1;" vertex="1" parent="VFUWJiDe5TxiRyz3XMpH-24">
          <mxGeometry y="60" width="160" height="26" as="geometry" />
        </mxCell>
        <mxCell id="VFUWJiDe5TxiRyz3XMpH-28" value="«interface»&lt;br&gt;&lt;b&gt;IFileAnalysis&lt;/b&gt;&lt;div&gt;&lt;b&gt;&lt;br&gt;&lt;/b&gt;&lt;/div&gt;&lt;div&gt;&lt;b&gt;AnalizeFile(file)&lt;/b&gt;&lt;/div&gt;" style="html=1;whiteSpace=wrap;" vertex="1" parent="1">
          <mxGeometry x="585" y="130" width="110" height="90" as="geometry" />
        </mxCell>
        <mxCell id="VFUWJiDe5TxiRyz3XMpH-29" value="" style="line;strokeWidth=1;fillColor=none;align=left;verticalAlign=middle;spacingTop=-1;spacingLeft=3;spacingRight=3;rotatable=0;labelPosition=right;points=[];portConstraint=eastwest;strokeColor=inherit;" vertex="1" parent="1">
          <mxGeometry x="585" y="180" width="110" height="8" as="geometry" />
        </mxCell>
        <mxCell id="VFUWJiDe5TxiRyz3XMpH-31" style="rounded=0;orthogonalLoop=1;jettySize=auto;html=1;entryX=0.167;entryY=1.041;entryDx=0;entryDy=0;exitX=0.642;exitY=-0.035;exitDx=0;exitDy=0;exitPerimeter=0;dashed=1;endArrow=block;endFill=0;entryPerimeter=0;" edge="1" parent="1" source="VFUWJiDe5TxiRyz3XMpH-20" target="VFUWJiDe5TxiRyz3XMpH-28">
          <mxGeometry relative="1" as="geometry">
            <mxPoint x="440" y="368" as="sourcePoint" />
            <mxPoint x="585" y="150" as="targetPoint" />
          </mxGeometry>
        </mxCell>
        <mxCell id="VFUWJiDe5TxiRyz3XMpH-32" style="rounded=0;orthogonalLoop=1;jettySize=auto;html=1;entryX=0;entryY=0.5;entryDx=0;entryDy=0;exitX=0.5;exitY=0;exitDx=0;exitDy=0;dashed=1;endArrow=block;endFill=0;" edge="1" parent="1" source="VFUWJiDe5TxiRyz3XMpH-24">
          <mxGeometry relative="1" as="geometry">
            <mxPoint x="450" y="417" as="sourcePoint" />
            <mxPoint x="652" y="220" as="targetPoint" />
          </mxGeometry>
        </mxCell>
        <mxCell id="VFUWJiDe5TxiRyz3XMpH-33" style="rounded=0;orthogonalLoop=1;jettySize=auto;html=1;entryX=0.728;entryY=1.181;entryDx=0;entryDy=0;entryPerimeter=0;exitX=0.5;exitY=0;exitDx=0;exitDy=0;" edge="1" parent="1" source="VFUWJiDe5TxiRyz3XMpH-24" target="VFUWJiDe5TxiRyz3XMpH-17">
          <mxGeometry relative="1" as="geometry" />
        </mxCell>
        <mxCell id="VFUWJiDe5TxiRyz3XMpH-34" style="rounded=0;orthogonalLoop=1;jettySize=auto;html=1;" edge="1" parent="1">
          <mxGeometry relative="1" as="geometry">
            <mxPoint x="380" y="350" as="sourcePoint" />
            <mxPoint x="430" y="240" as="targetPoint" />
          </mxGeometry>
        </mxCell>
        <mxCell id="VFUWJiDe5TxiRyz3XMpH-35" value="&lt;span style=&quot;font-weight: 400; text-align: left;&quot;&gt;AnalysisResults&lt;/span&gt;" style="swimlane;fontStyle=1;align=center;verticalAlign=top;childLayout=stackLayout;horizontal=1;startSize=26;horizontalStack=0;resizeParent=1;resizeParentMax=0;resizeLast=0;collapsible=1;marginBottom=0;whiteSpace=wrap;html=1;" vertex="1" parent="1">
          <mxGeometry x="40" y="120" width="160" height="138" as="geometry" />
        </mxCell>
        <mxCell id="VFUWJiDe5TxiRyz3XMpH-36" value="+ wordCount: type" style="text;strokeColor=none;fillColor=none;align=left;verticalAlign=top;spacingLeft=4;spacingRight=4;overflow=hidden;rotatable=0;points=[[0,0.5],[1,0.5]];portConstraint=eastwest;whiteSpace=wrap;html=1;" vertex="1" parent="VFUWJiDe5TxiRyz3XMpH-35">
          <mxGeometry y="26" width="160" height="26" as="geometry" />
        </mxCell>
        <mxCell id="VFUWJiDe5TxiRyz3XMpH-43" value="+ charCount: type" style="text;strokeColor=none;fillColor=none;align=left;verticalAlign=top;spacingLeft=4;spacingRight=4;overflow=hidden;rotatable=0;points=[[0,0.5],[1,0.5]];portConstraint=eastwest;whiteSpace=wrap;html=1;" vertex="1" parent="VFUWJiDe5TxiRyz3XMpH-35">
          <mxGeometry y="52" width="160" height="26" as="geometry" />
        </mxCell>
        <mxCell id="VFUWJiDe5TxiRyz3XMpH-44" value="+ lineCount: type" style="text;strokeColor=none;fillColor=none;align=left;verticalAlign=top;spacingLeft=4;spacingRight=4;overflow=hidden;rotatable=0;points=[[0,0.5],[1,0.5]];portConstraint=eastwest;whiteSpace=wrap;html=1;" vertex="1" parent="VFUWJiDe5TxiRyz3XMpH-35">
          <mxGeometry y="78" width="160" height="26" as="geometry" />
        </mxCell>
        <mxCell id="VFUWJiDe5TxiRyz3XMpH-45" value="+ fieldCount: type" style="text;strokeColor=none;fillColor=none;align=left;verticalAlign=top;spacingLeft=4;spacingRight=4;overflow=hidden;rotatable=0;points=[[0,0.5],[1,0.5]];portConstraint=eastwest;whiteSpace=wrap;html=1;" vertex="1" parent="VFUWJiDe5TxiRyz3XMpH-35">
          <mxGeometry y="104" width="160" height="26" as="geometry" />
        </mxCell>
        <mxCell id="VFUWJiDe5TxiRyz3XMpH-37" value="" style="line;strokeWidth=1;fillColor=none;align=left;verticalAlign=middle;spacingTop=-1;spacingLeft=3;spacingRight=3;rotatable=0;labelPosition=right;points=[];portConstraint=eastwest;strokeColor=inherit;" vertex="1" parent="VFUWJiDe5TxiRyz3XMpH-35">
          <mxGeometry y="130" width="160" height="8" as="geometry" />
        </mxCell>
      </root>
    </mxGraphModel>
  </diagram>
</mxfile>
